# File created by Blade
# Date/Time:  Wed Jan 21 14:58:10 2015
# Frame Rate: 120.000 fps
#------------------------------------------------------
:FULLY-SPECIFIED
:DEGREES
1000
root 17.726286 35.340260 -23.053539 -171.245239 7.523270 -177.524938
Spine -17.750833 -0.635268 2.453085
Head 10.862529 -0.937078 0.470650
LeftShoulder -12.079795 -30.245823 20.953177
LeftArm -4.836160 2.678833 -8.851405
LeftForeArm 10.081834 -0.000000 -3.335947
LeftHand -12.094374 -0.000000 -1.163420
LeftHandThumb1 -26.253704 0.000000 33.147579
RightShoulder -14.462170 -3.115495 -12.593332
RightArm 4.397917 38.167693 11.512645
RightForeArm -34.991191 -0.000000 3.758256
RightHand -6.183214 0.000000 7.294599
RightHandThumb1 -24.326973 -0.000000 -32.862282
LeftUpLeg 1.649576 16.015267 5.085525
LeftLeg -6.519048 -0.000000 0.000000
LeftFoot -21.502338 29.032660 -14.833162
LeftToeBase 25.837340 -0.000000 -0.000000
RightUpLeg -2.848249 -1.291961 -2.128137
RightLeg -2.775368 -0.000000 0.000000
RightFoot -18.372756 -15.050526 16.152282
RightToeBase 23.029738 -0.000000 -0.000000
1001
root 17.727296 35.340100 -23.050254 -171.301410 7.542995 -177.531697
Spine -17.717258 -0.490273 2.404761
Head 10.869339 -0.957488 0.466094
LeftShoulder -12.023944 -30.202395 20.870677
LeftArm -4.821531 2.581757 -8.853705
LeftForeArm 10.042349 -0.000000 -3.342100
LeftHand -12.072222 -0.000000 -1.259962
LeftHandThumb1 -26.253704 0.000000 33.147579
RightShoulder -14.413243 -3.124485 -12.618396
RightArm 4.406078 38.126656 11.532691
RightForeArm -34.860328 -0.000000 3.723119
RightHand -6.136605 -0.000000 7.286269
RightHandThumb1 -24.326973 -0.000000 -32.862282
LeftUpLeg 1.683953 16.081282 5.089964
LeftLeg -6.478440 -0.000000 0.000000
LeftFoot -21.518748 28.990039 -14.832747
LeftToeBase 25.839170 -0.000000 -0.000000
RightUpLeg -2.808148 -1.229093 -2.139857
RightLeg -2.762048 -0.000000 0.000000
RightFoot -18.391512 -15.082398 16.137102
RightToeBase 23.076883 -0.000000 -0.000000
1002
root 17.729374 35.339480 -23.046792 -171.349382 7.561945 -177.531882
Spine -17.685624 -0.345214 2.354553
Head 10.849596 -0.986811 0.495694
LeftShoulder -12.013816 -30.235691 20.851276
LeftArm -4.786927 2.584882 -8.904549
LeftForeArm 10.025587 -0.000000 -3.372663
LeftHand -12.048708 -0.000000 -1.341918
LeftHandThumb1 -26.253704 0.000000 33.147579
RightShoulder -14.392559 -3.137150 -12.635806
RightArm 4.464096 38.136784 11.587048
RightForeArm -34.852887 -0.000000 3.688718
RightHand -6.132296 -0.000000 7.260911
RightHandThumb1 -24.326973 -0.000000 -32.862282
LeftUpLeg 1.714332 16.161063 5.101272
LeftLeg -6.447841 -0.000000 0.000000
LeftFoot -21.522951 28.941104 -14.811703
LeftToeBase 25.855597 -0.000000 -0.000000
RightUpLeg -2.763455 -1.129673 -2.149031
RightLeg -2.766705 -0.000000 0.000000
RightFoot -18.412207 -15.139684 16.128585
RightToeBase 23.112419 -0.000000 -0.000000
1003
root 17.730017 35.339316 -23.043204 -171.391616 7.584358 -177.533228
Spine -17.659977 -0.203035 2.314137
Head 10.830131 -1.042703 0.507368
LeftShoulder -11.980536 -30.254886 20.821447
LeftArm -4.807510 2.556645 -8.951200
LeftForeArm 10.017658 -0.000000 -3.356904
LeftHand -12.081000 0.000000 -1.294451
LeftHandThumb1 -26.253704 0.000000 33.147579
RightShoulder -14.357060 -3.128836 -12.672611
RightArm 4.513862 38.168636 11.663001
RightForeArm -34.904474 -0.000000 3.688925
RightHand -6.122753 -0.000000 7.241464
RightHandThumb1 -24.326973 -0.000000 -32.862282
LeftUpLeg 1.741347 16.241496 5.106822
LeftLeg -6.422801 -0.000000 0.000000
LeftFoot -21.531309 28.892449 -14.814589
LeftToeBase 25.885973 -0.000000 -0.000000
RightUpLeg -2.744965 -1.076160 -2.153129
RightLeg -2.740074 -0.000000 0.000000
RightFoot -18.442774 -15.137133 16.137697
RightToeBase 23.276102 -0.000000 -0.000000
1004
root 17.731610 35.338634 -23.040209 -171.437816 7.593606 -177.536898
Spine -17.635641 -0.086685 2.280258
Head 10.830594 -1.042371 0.493704
LeftShoulder -11.943212 -30.275011 20.771244
LeftArm -4.828371 2.584396 -8.969851
LeftForeArm 9.979332 -0.000000 -3.357737
LeftHand -12.110479 -0.000000 -1.316880
LeftHandThumb1 -26.253704 0.000000 33.147579
RightShoulder -14.317855 -3.150099 -12.710125
RightArm 4.593133 38.224318 11.765068
RightForeArm -34.939777 0.000000 3.710407
RightHand -6.141589 -0.000000 7.196314
RightHandThumb1 -24.326973 -0.000000 -32.862282
LeftUpLeg 1.773989 16.301423 5.114030
LeftLeg -6.404788 -0.000000 0.000000
LeftFoot -21.541419 28.857076 -14.803718
LeftToeBase 25.873649 -0.000000 -0.000000
RightUpLeg -2.713637 -1.009148 -2.160391
RightLeg -2.719816 -0.000000 0.000000
RightFoot -18.455537 -15.220709 16.109678
RightToeBase 23.057435 -0.000000 -0.000000
1005
root 17.732904 35.338864 -23.037181 -171.480368 7.605829 -177.534053
Spine -17.609298 0.037326 2.245353
Head 10.815302 -1.034245 0.528493
LeftShoulder -11.930982 -30.289145 20.750085
LeftArm -4.842187 2.619093 -9.012499
LeftForeArm 9.947077 -0.000000 -3.323893
LeftHand -12.140681 0.000000 -1.326283
LeftHandThumb1 -26.253704 0.000000 33.147579
RightShoulder -14.275676 -3.121009 -12.765655
RightArm 4.675182 38.530875 11.900025
RightForeArm -35.285270 0.000000 3.682029
RightHand -5.980475 0.000000 7.156082
RightHandThumb1 -24.326973 -0.000000 -32.862282
LeftUpLeg 1.810895 16.356062 5.125147
LeftLeg -6.401381 -0.000000 0.000000
LeftFoot -21.534945 28.841628 -14.798239
LeftToeBase 25.907182 -0.000000 -0.000000
RightUpLeg -2.688108 -0.961870 -2.161241
RightLeg -2.695600 -0.000000 0.000000
RightFoot -18.438608 -15.269753 16.018239
RightToeBase 23.047215 -0.000000 -0.000000
1006
root 17.734453 35.338761 -23.034335 -171.531012 7.610047 -177.537907
Spine -17.591143 0.144451 2.208818
Head 10.860872 -1.025799 0.526522
LeftShoulder -11.887785 -30.318135 20.722377
LeftArm -4.889720 2.618614 -9.048494
LeftForeArm 10.002271 -0.000000 -3.299402
LeftHand -12.157379 -0.000000 -1.276888
LeftHandThumb1 -26.253704 0.000000 33.147579
RightShoulder -14.236988 -3.115931 -12.790971
RightArm 4.768856 38.479231 11.971414
RightForeArm -35.205627 -0.000000 3.684570
RightHand -6.001066 -0.000000 7.163148
RightHandThumb1 -24.326973 -0.000000 -32.862282
LeftUpLeg 1.849331 16.414570 5.134194
LeftLeg -6.385396 -0.000000 0.000000
LeftFoot -21.507596 28.793429 -14.769099
LeftToeBase 25.830944 -0.000000 -0.000000
RightUpLeg -2.648107 -0.922616 -2.166262
RightLeg -2.684815 -0.000000 0.000000
RightFoot -18.447516 -15.291294 16.014421
RightToeBase 23.046679 -0.000000 -0.000000
